<svg width="170" height="170" viewBox="0 0 170 170" fill="none" xmlns="http://www.w3.org/2000/svg">
<path d="M142.104 132.441C149.733 123.261 155.04 112.379 157.574 100.715C160.108 89.0514 159.796 76.9487 156.664 65.431C153.532 53.9132 147.671 43.3193 139.579 34.5455C131.486 25.7716 121.4 19.0759 110.172 15.0247C98.9445 10.9736 86.9064 9.68617 75.0761 11.2714C63.2457 12.8567 51.9712 17.2679 42.2063 24.1321C32.4414 30.9962 24.4734 40.1112 18.9762 50.7061C13.4791 61.3009 10.6146 73.0639 10.625 85C10.629 102.352 16.7437 119.148 27.896 132.441L27.7897 132.531C28.1616 132.977 28.5866 133.36 28.9691 133.801C29.4472 134.348 29.9625 134.863 30.4566 135.394C31.9441 137.009 33.4741 138.561 35.0785 140.016C35.5672 140.462 36.0719 140.877 36.566 141.302C38.266 142.768 40.0138 144.16 41.8253 145.456C42.0591 145.616 42.2716 145.823 42.5053 145.987V145.924C54.9478 154.68 69.7909 159.379 85.0053 159.379C100.22 159.379 115.063 154.68 127.505 145.924V145.987C127.739 145.823 127.946 145.616 128.185 145.456C129.992 144.155 131.745 142.768 133.445 141.302C133.939 140.877 134.443 140.457 134.932 140.016C136.537 138.555 138.067 137.009 139.554 135.394C140.048 134.863 140.558 134.348 141.042 133.801C141.419 133.36 141.849 132.977 142.221 132.526L142.104 132.441ZM85 42.5C89.7282 42.5 94.3503 43.9021 98.2816 46.5289C102.213 49.1558 105.277 52.8894 107.087 57.2577C108.896 61.626 109.369 66.4328 108.447 71.0701C107.525 75.7075 105.248 79.9672 101.904 83.3105C98.561 86.6539 94.3013 88.9307 89.6639 89.8531C85.0266 90.7756 80.2198 90.3021 75.8515 88.4927C71.4832 86.6833 67.7496 83.6192 65.1227 79.6878C62.4959 75.7565 61.0938 71.1345 61.0938 66.4062C61.0938 60.0659 63.6125 53.9853 68.0958 49.502C72.5791 45.0187 78.6597 42.5 85 42.5V42.5ZM42.5372 132.441C42.6294 125.465 45.4641 118.806 50.4282 113.905C55.3922 109.004 62.0864 106.254 69.0625 106.25H100.938C107.914 106.254 114.608 109.004 119.572 113.905C124.536 118.806 127.371 125.465 127.463 132.441C115.812 142.94 100.684 148.75 85 148.75C69.3162 148.75 54.1884 142.94 42.5372 132.441V132.441Z" fill="#222222"/>
</svg>
