<svg width="24" height="24" viewBox="0 0 24 24" fill="none" xmlns="http://www.w3.org/2000/svg">
<path d="M11.7647 23.5294C18.2622 23.5294 23.5294 18.2622 23.5294 11.7647C23.5294 5.26724 18.2622 0 11.7647 0C5.26724 0 0 5.26724 0 11.7647C0 18.2622 5.26724 23.5294 11.7647 23.5294Z" fill="url(#paint0_radial)"/>
<path d="M11.7647 2.80112C6.82875 2.80112 2.80109 6.82948 2.80109 11.7647C2.80109 16.7006 6.82945 20.7283 11.7647 20.7283C16.7006 20.7283 20.7283 16.6999 20.7283 11.7647C20.7283 6.82878 16.6999 2.80112 11.7647 2.80112ZM11.7647 19.6779C7.40133 19.6779 3.85151 16.128 3.85151 11.7647C3.85151 7.40136 7.40133 3.85154 11.7647 3.85154C16.128 3.85154 19.6778 7.40136 19.6778 11.7647C19.6778 16.128 16.128 19.6779 11.7647 19.6779Z" fill="#F8B013"/>
<path d="M11.7647 4.79303C7.93516 4.79303 4.79303 7.93626 4.79303 11.7647C4.79303 15.5943 7.93626 18.7364 11.7647 18.7364C15.5943 18.7364 18.7364 15.5932 18.7364 11.7647C18.7364 7.93516 15.5932 4.79303 11.7647 4.79303ZM11.7647 17.6693C8.5089 17.6693 5.86012 15.0205 5.86012 11.7647C5.86012 8.5089 8.5089 5.86012 11.7647 5.86012C15.0205 5.86012 17.6693 8.5089 17.6693 11.7647C17.6693 15.0205 15.0205 17.6693 11.7647 17.6693Z" fill="#F8B013"/>
<defs>
<radialGradient id="paint0_radial" cx="0" cy="0" r="1" gradientUnits="userSpaceOnUse" gradientTransform="translate(11.7647 11.7647) scale(16.1479)">
<stop stop-color="#FFCF00"/>
<stop offset="1" stop-color="#F7AE15"/>
</radialGradient>
</defs>
</svg>
